#!OML:ASF F:\VICON\USERDATA\INSTALL\Justin_Nancy\Justin_Nancy.ASF
:FULLY-SPECIFIED
:DEGREES
236
root 11.0622 17.509 5.43055 0.392411 -39.685 3.4688
lowerback 4.98626 0.800771 -0.936428
upperback -0.853236 1.0723 1.84404
thorax -3.73068 0.57206 2.34262
lowerneck -13.2834 -6.27922 -11.293
upperneck 24.0728 -8.12345 6.89568
head 10.6841 -4.04622 3.2552
rclavicle -6.90777e-015 -2.3059e-014
rhumerus -30.8932 -11.7173 -80.9376
rradius 30.2371
rwrist 7.18943
rhand -12.9119 13.0292
rfingers 7.12502
rthumb 13.1782 -16.5343
lclavicle -6.90777e-015 -2.3059e-014
lhumerus -34.768 20.067 78.9946
lradius 23.2835
lwrist -12.6905
lhand -14.3222 27.8274
lfingers 7.12502
lthumb 11.8185 57.4739
rfemur -9.80526 -3.39585 33.7634
rtibia 13.4464
rfoot -3.67697 -15.4166
rtoes 18.9945
lfemur -12.5854 7.36897 -17.4473
ltibia 60.6136
lfoot 5.62442 -8.92091
ltoes -7.77314
237
root 11.0108 17.5032 5.51676 0.467062 -41.3438 3.3581
lowerback 5.04404 1.00916 -0.82661
upperback -0.829977 1.3569 1.84951
thorax -3.75052 0.711088 2.26212
lowerneck -13.0999 -6.19374 -11.2349
upperneck 23.7936 -8.01666 6.88171
head 10.5308 -3.99673 3.25788
rclavicle -6.60959e-014 5.56597e-015
rhumerus -30.4653 -11.2331 -81.2594
rradius 30.2091
rwrist 7.34609
rhand -15.0891 10.4604
rfingers 7.12502
rthumb 11.0788 -19.2272
lclavicle -6.60959e-014 5.56597e-015
lhumerus -34.855 20.3792 79.0074
lradius 23.3996
lwrist -12.9437
lhand -14.6432 27.5439
lfingers 7.12502
lthumb 11.5088 57.2079
rfemur -9.33058 -2.06619 33.7953
rtibia 13.7677
rfoot -4.66364 -15.2399
rtoes 21.6214
lfemur -13.3801 7.4615 -17.1587
ltibia 61.4301
lfoot 4.84908 -7.92408
ltoes -0.142714
238
root 10.9613 17.4934 5.605 0.51712 -42.8805 3.15768
lowerback 5.29076 1.15516 -0.667716
upperback -0.904062 1.56616 1.93752
thorax -3.97456 0.814211 2.24139
lowerneck -12.825 -6.01224 -11.4749
upperneck 23.6862 -7.79282 7.11202
head 10.4351 -3.89834 3.41895
rclavicle 6.10766e-014 -1.66979e-014
rhumerus -30.2983 -10.5719 -81.4609
rradius 30.3107
rwrist 7.40133
rhand -15.9828 10.0221
rfingers 7.12502
rthumb 10.2167 -19.7098
lclavicle 6.10766e-014 -1.66979e-014
lhumerus -35.4108 21.344 78.7102
lradius 23.6563
lwrist -14.1523
lhand -14.1615 27.9505
lfingers 7.12502
lthumb 11.9733 57.5881
rfemur -9.08809 -0.977237 33.9224
rtibia 14.5668
rfoot -5.41676 -14.9303
rtoes 21.6715
lfemur -14.0268 7.39293 -16.8553
ltibia 62.2114
lfoot 3.84785 -6.95162
ltoes -7.46925
239
root 10.8733 17.5178 5.77383 -0.868326 -44.3171 4.75369
lowerback 4.57536 1.25943 -1.29817
upperback -0.620156 1.65176 1.51642
thorax -3.28653 0.859334 2.16929
lowerneck -13.0812 -5.9234 -11.2535
upperneck 24.0031 -7.65859 6.89473
head 10.5665 -3.84025 3.32053
rclavicle 2.83268e-014 9.54166e-015
rhumerus -29.9725 -9.95352 -81.7863
rradius 30.3764
rwrist 7.57294
rhand -15.198 10.4036
rfingers 7.12502
rthumb 10.9738 -19.2896
lclavicle 2.83268e-014 9.54166e-015
lhumerus -35.6443 21.6067 78.6613
lradius 23.885
lwrist -14.1459
lhand -13.6678 28.7257
lfingers 7.12502
lthumb 12.4494 58.3349
rfemur -8.24995 -2.08866 32.4311
rtibia 15.2946
rfoot -6.62608 -12.8045
rtoes 20.0594
lfemur -13.5204 6.96215 -18.3358
ltibia 62.3609
lfoot 2.62623 -5.38084
ltoes -13.1536
240
root 10.8394 17.4898 5.80822 -0.122234 -45.6526 4.05099
lowerback 5.00026 1.29013 -1.09008
upperback -0.801802 1.70911 1.67045
thorax -3.71529 0.889727 2.19645
lowerneck -13.4132 -5.91623 -10.8019
upperneck 24.1583 -7.62975 6.5049
head 10.6479 -3.82483 3.10207
rclavicle -1.81888e-014 7.95139e-016
rhumerus -29.5838 -9.20969 -82.3273
rradius 30.5286
rwrist 7.42899
rhand -14.8658 10.4324
rfingers 7.12502
rthumb 11.2942 -19.2435
lclavicle -1.81888e-014 7.95139e-016
lhumerus -35.674 21.758 78.6093
lradius 23.9289
lwrist -13.6543
lhand -13.8204 28.0779
lfingers 7.12502
lthumb 12.3023 57.696
rfemur -8.66029 -0.809229 33.142
rtibia 15.9952
rfoot -6.8774 -12.799
rtoes 20.3011
lfemur -15.0319 6.78933 -17.5565
ltibia 63.0274
lfoot 2.40309 -4.54937
ltoes -15.0477
